<svg id="Layer_2" data-name="Layer 2" xmlns="http://www.w3.org/2000/svg" viewBox="0 0 912.68 912.68"><defs><style>.cls-1{fill:#555;}.cls-2{fill:#737373;}.cls-3{fill:#7a7a7a;}.cls-4{fill:#929292;}.cls-5{fill:#bbb;}.cls-6{fill:#fff;}</style></defs><circle class="cls-1" cx="456.34" cy="456.34" r="456.34"/><path class="cls-2" d="M909.34,529.58a407.13,407.13,0,0,1-17.12,91.58,443.51,443.51,0,0,0-54-33.48c-4.9-2.52-9.86-5-14.76-7.26-2.6-1.23-5.19-2.45-7.72-3.52-257.6-114.28-531,86.76-576.06,99.76-50,14.44-97.84-1-110.3-5.51-1.61-.69-2.68-1.07-3-1.22l-.07-.08a407.24,407.24,0,0,1-31.42-104c22.47,9.32,116,37.15,261.66-65.82C504.28,395.5,698.06,353,909.34,529.58Z" transform="translate(-43.66 -43.66)"/><path class="cls-3" d="M892.22,621.16a408.57,408.57,0,0,1-78.43,143.25c-69.33-30.58-150.89-65-249.27-90-210.37-53.74-329.47,139-329.47,139a411.4,411.4,0,0,1-108.7-143.48c.31.15,1.38.53,3,1.22,12.46,4.51,60.31,20,110.3,5.51,45-13,318.46-214,576.06-99.76,2.6,1.15,5.2,2.37,7.72,3.52,4.9,2.37,9.86,4.74,14.76,7.26A443.51,443.51,0,0,1,892.22,621.16Z" transform="translate(-43.66 -43.66)"/><path class="cls-4" d="M813.79,764.41a392.16,392.16,0,0,1-46.63,47c-247-130.56-418.74,70.1-418.74,70.1a410.6,410.6,0,0,1-113.37-68.11s119.1-192.79,329.47-139C662.9,699.44,744.46,733.83,813.79,764.41Z" transform="translate(-43.66 -43.66)"/><path class="cls-5" d="M767.16,811.42a410.72,410.72,0,0,1-418.74,70.1S520.18,680.86,767.16,811.42Z" transform="translate(-43.66 -43.66)"/><path class="cls-6" d="M500,925.68c-234.73,0-425.69-191-425.69-425.68S265.27,74.31,500,74.31,925.68,265.27,925.68,500,734.72,925.68,500,925.68Zm0-820.79c-217.87,0-395.11,177.24-395.11,395.11S282.13,895.11,500,895.11,895.11,717.87,895.11,500,717.87,104.89,500,104.89Z" transform="translate(-43.66 -43.66)"/></svg>